<svg id="Layer_2" data-name="Layer 2" xmlns="http://www.w3.org/2000/svg" viewBox="0 0 40 40"><defs><style>.cls-1{fill:#ffffff;}</style></defs><path class="cls-1" d="M37.51,15.58a1.11,1.11,0,0,0-.93-1,1.2,1.2,0,0,0-.8.06c0-.49,0-.94,0-1.43a2.63,2.63,0,0,0-.57-1.63A2.39,2.39,0,0,0,33.73,11l-29.22,0A2.38,2.38,0,0,0,3,11.78a2.06,2.06,0,0,0-.7,1.37v6.72h0V26.4a2.1,2.1,0,0,0,.7,1.37,2.46,2.46,0,0,0,1.47.73l29.23,0A2.38,2.38,0,0,0,35.19,28a2.63,2.63,0,0,0,.57-1.63c0-.49,0-.94,0-1.43a1.27,1.27,0,0,0,.8.06,1.12,1.12,0,0,0,.93-1C37.52,22.5,37.51,17,37.51,15.58Zm-3.83,6H32.52a.26.26,0,0,0-.25.26l0,3.17-26.41,0c0-1.76,0-8.81,0-10.57l26.4,0,0,3.17a.26.26,0,0,0,.25.26h1.16a.34.34,0,0,1,.32.34l0,2.93A.35.35,0,0,1,33.68,21.58Z"/><rect class="cls-1" x="7.64" y="16.28" width="17.58" height="7.07"/></svg>