<svg xmlns="http://www.w3.org/2000/svg" viewBox="0 0 40 40"><defs><style>.cls-1{fill:#ffffff;}</style></defs><g id="Layer_3" data-name="Layer 3"><path class="cls-1" d="M29,21c-.73-3.05-3.64-5.82-5-8a15.89,15.89,0,0,1-2-5c-.07-1.28-1.43-3-3-2a3.14,3.14,0,0,0-1,2,15.89,15.89,0,0,1-2,5c-1.36,2.17-4.27,4.95-5,8-2,6.73,2.9,13.45,9,13h0C26,34.48,30.94,27.75,29,21Zm-8.12,8.9c-1.43,1.25-3.59.13-5.43-1.75,0,.19-2.05-2.73-1.32-4.45.13-.36,1-.57,1.23-.19a1.24,1.24,0,0,1,.28.93c-.11,2.22,2.58,4.35,4.11,4.2C20.44,28.57,21.27,29.11,20.85,29.9Z"/></g></svg>