<svg id="Layer_3" data-name="Layer 3" xmlns="http://www.w3.org/2000/svg" viewBox="0 0 40 40"><defs><style>.cls-1{fill:#ffffff;}</style></defs><path class="cls-1" d="M33.91,15.17c-.31-3.41-3.15-7.08-7-7.08A9.17,9.17,0,0,0,20,11.48a9.21,9.21,0,0,0-6.92-3.39c-3.84,0-6.68,3.67-7,7.08a7.45,7.45,0,0,0,.17,2.31,8.14,8.14,0,0,0,2.1,3.72L18.86,32.1a1.73,1.73,0,0,0,.47.35,1.68,1.68,0,0,0,.59.18v0h.17v0a1.62,1.62,0,0,0,.59-.18,1.59,1.59,0,0,0,.47-.35L31.64,21.19a8,8,0,0,0,2.1-3.71A7.18,7.18,0,0,0,33.91,15.17ZM32.1,16.78a6.45,6.45,0,0,1-1.76,3.34L20,30.79Q14.83,25.46,9.67,20.12a6.48,6.48,0,0,1-1.76-3.34,6.09,6.09,0,0,1,.76-4.3A5.84,5.84,0,0,1,12,10a6.14,6.14,0,0,1,5.17,1.18,36.58,36.58,0,0,1,2.61,2.58.33.33,0,0,0,.48,0,36.85,36.85,0,0,1,2.65-2.58A6.15,6.15,0,0,1,28.05,10a5.77,5.77,0,0,1,3.29,2.5A6,6,0,0,1,32.1,16.78Z"/></svg>