<svg id="Layer_4" data-name="Layer 4" xmlns="http://www.w3.org/2000/svg" viewBox="0 0 40 40"><defs><style>.cls-1{fill:#ffffff;}</style></defs><path class="cls-1" d="M34,10.36a5,5,0,0,0-1-2.42,4,4,0,0,0-2.6-1.11c-10.49-.31-20.59,0-20.88,0h0A3.42,3.42,0,0,0,6.85,8a3.62,3.62,0,0,0-1,2.38q0,7.86.07,15.72A3.53,3.53,0,0,0,9.4,29.64h5.27v4.55a.82.82,0,0,0,.34.58.77.77,0,0,0,.67.06l6.81-5.19,7.92-.05a3.54,3.54,0,0,0,2.21-.74,3.66,3.66,0,0,0,1.31-2.68C34.08,20.2,34,10.36,34,10.36ZM21.75,21.24a.55.55,0,0,1-.55.54H13.47a.54.54,0,0,1-.54-.54v-.82a.54.54,0,0,1,.54-.55H21.2a.55.55,0,0,1,.55.55Zm5.31-5.18a.55.55,0,0,1-.54.55H13.37a.55.55,0,0,1-.54-.55v-.82a.55.55,0,0,1,.54-.55H26.52a.55.55,0,0,1,.54.55Z"/></svg>