<svg id="Layer_4" data-name="Layer 4" xmlns="http://www.w3.org/2000/svg" viewBox="0 0 40 40"><defs><style>.cls-1{fill:#ffffff;}</style></defs><path class="cls-1" d="M16.36,5h0c-3.9-.15-8.58,3.61-8.66,8.72v12A.45.45,0,0,0,8,26H9.2c.16,0,.25-.18.24-.32,0-3.25,0-4.69,0-12a7.24,7.24,0,0,1,7-7h0a7.24,7.24,0,0,1,6.91,7c0,7.3,0,8.74,0,12,0,.15.08.33.24.33s1.16,0,1.21,0a.45.45,0,0,0,.29-.36v-12C25.06,8.54,20.29,4.75,16.36,5Z"/><path class="cls-1" d="M12.58,24.6a12.16,12.16,0,0,0,1.13,5.25,10.31,10.31,0,0,0,3.71,4.28A10.57,10.57,0,0,0,23,35.79h0a10.61,10.61,0,0,0,5.64-1.65,10.3,10.3,0,0,0,3.7-4.29,12.27,12.27,0,0,0,1.14-5.24c0-4.21.06-8.44,0-12.6a.87.87,0,0,0-.21-.45.75.75,0,0,0-.4-.3h-4a.84.84,0,0,0-.43.22c-.12.14-.23.24-.23.37,0,4.44,0,9,0,13.55a5.4,5.4,0,0,1-1.76,3.93A5.21,5.21,0,0,1,23,30.59v0a5.3,5.3,0,0,1-3.47-1.27,5.37,5.37,0,0,1-1.75-3.93V11.84c0-.13-.11-.22-.23-.36a.72.72,0,0,0-.42-.22c-.21,0-2.61,0-4,0a.73.73,0,0,0-.41.3.84.84,0,0,0-.2.44C12.52,16.17,12.56,20.4,12.58,24.6Z"/></svg>