<svg width="0" height="0" class="hidden">
  <symbol xmlns="http://www.w3.org/2000/svg" viewBox="0 0 40 40" id="drop">
    <defs></defs>
    <g id="Layer_3">
      <path d="M29,21c-.73-3.05-3.64-5.82-5-8a15.89,15.89,0,0,1-2-5c-.07-1.28-1.43-3-3-2a3.14,3.14,0,0,0-1,2,15.89,15.89,0,0,1-2,5c-1.36,2.17-4.27,4.95-5,8-2,6.73,2.9,13.45,9,13h0C26,34.48,30.94,27.75,29,21Zm-8.12,8.9c-1.43,1.25-3.59.13-5.43-1.75,0,.19-2.05-2.73-1.32-4.45.13-.36,1-.57,1.23-.19a1.24,1.24,0,0,1,.28.93c-.11,2.22,2.58,4.35,4.11,4.2C20.44,28.57,21.27,29.11,20.85,29.9Z"></path>
    </g>
  </symbol>

  <symbol xmlns="http://www.w3.org/2000/svg" viewBox="0 0 40 40" id="touch">
    <defs></defs>
    <g id="Layer_3">
      <path d="M26.57,15.22c-.16-1.87-3.46-1.84-3.79-.33.46-2.11-3.62-2.46-3.46-1.23-.35-2.69.84-7.81-2.42-8a2.39,2.39,0,0,0-2.1,1.23A2,2,0,0,0,14.55,8v8.32c-1.85-2.35-5.44,1-4.33,3.51,1.63,3.64,4.11,7.5,6.11,7.72.82.08,9.37,0,11.18.08a.75.75,0,0,0,.72-.5A28.2,28.2,0,0,0,30.58,18C30.89,15.5,26.4,13.21,26.57,15.22Z"></path>
      <path d="M27.46,28.62c-3.26-.11-10.29-.06-11.13,0-1.79,0-1.57,4.86-.24,4.85,5.38,0,7.62.07,11.51.07,1,0,1.73-3.07.68-4.48A1.07,1.07,0,0,0,27.46,28.62Zm-.81,3.06a1.12,1.12,0,0,1-2.15-.62A1.12,1.12,0,1,1,26.65,31.68Z"></path>
    </g>
  </symbol>

  <symbol id="mix_match" xmlns="http://www.w3.org/2000/svg" viewBox="0 0 40 40">
    <defs></defs>
    <path d="M16.36,5h0c-3.9-.15-8.58,3.61-8.66,8.72v12A.45.45,0,0,0,8,26H9.2c.16,0,.25-.18.24-.32,0-3.25,0-4.69,0-12a7.24,7.24,0,0,1,7-7h0a7.24,7.24,0,0,1,6.91,7c0,7.3,0,8.74,0,12,0,.15.08.33.24.33s1.16,0,1.21,0a.45.45,0,0,0,.29-.36v-12C25.06,8.54,20.29,4.75,16.36,5Z"></path>
    <path d="M12.58,24.6a12.16,12.16,0,0,0,1.13,5.25,10.31,10.31,0,0,0,3.71,4.28A10.57,10.57,0,0,0,23,35.79h0a10.61,10.61,0,0,0,5.64-1.65,10.3,10.3,0,0,0,3.7-4.29,12.27,12.27,0,0,0,1.14-5.24c0-4.21.06-8.44,0-12.6a.87.87,0,0,0-.21-.45.75.75,0,0,0-.4-.3h-4a.84.84,0,0,0-.43.22c-.12.14-.23.24-.23.37,0,4.44,0,9,0,13.55a5.4,5.4,0,0,1-1.76,3.93A5.21,5.21,0,0,1,23,30.59v0a5.3,5.3,0,0,1-3.47-1.27,5.37,5.37,0,0,1-1.75-3.93V11.84c0-.13-.11-.22-.23-.36a.72.72,0,0,0-.42-.22c-.21,0-2.61,0-4,0a.73.73,0,0,0-.41.3.84.84,0,0,0-.2.44C12.52,16.17,12.56,20.4,12.58,24.6Z"></path>
  </symbol>

  <symbol id="battery" xmlns="http://www.w3.org/2000/svg" viewBox="0 0 40 40">
    <defs></defs>
    <path d="M37.51,15.58a1.11,1.11,0,0,0-.93-1,1.2,1.2,0,0,0-.8.06c0-.49,0-.94,0-1.43a2.63,2.63,0,0,0-.57-1.63A2.39,2.39,0,0,0,33.73,11l-29.22,0A2.38,2.38,0,0,0,3,11.78a2.06,2.06,0,0,0-.7,1.37v6.72h0V26.4a2.1,2.1,0,0,0,.7,1.37,2.46,2.46,0,0,0,1.47.73l29.23,0A2.38,2.38,0,0,0,35.19,28a2.63,2.63,0,0,0,.57-1.63c0-.49,0-.94,0-1.43a1.27,1.27,0,0,0,.8.06,1.12,1.12,0,0,0,.93-1C37.52,22.5,37.51,17,37.51,15.58Zm-3.83,6H32.52a.26.26,0,0,0-.25.26l0,3.17-26.41,0c0-1.76,0-8.81,0-10.57l26.4,0,0,3.17a.26.26,0,0,0,.25.26h1.16a.34.34,0,0,1,.32.34l0,2.93A.35.35,0,0,1,33.68,21.58Z"></path>
    <rect x="7.64" y="16.28" width="17.58" height="7.07"></rect>
  </symbol>

  <symbol id="heart_thin" xmlns="http://www.w3.org/2000/svg" viewBox="0 0 40 40">
    <defs></defs>
    <path d="M33.91,15.17c-.31-3.41-3.15-7.08-7-7.08A9.17,9.17,0,0,0,20,11.48a9.21,9.21,0,0,0-6.92-3.39c-3.84,0-6.68,3.67-7,7.08a7.45,7.45,0,0,0,.17,2.31,8.14,8.14,0,0,0,2.1,3.72L18.86,32.1a1.73,1.73,0,0,0,.47.35,1.68,1.68,0,0,0,.59.18v0h.17v0a1.62,1.62,0,0,0,.59-.18,1.59,1.59,0,0,0,.47-.35L31.64,21.19a8,8,0,0,0,2.1-3.71A7.18,7.18,0,0,0,33.91,15.17ZM32.1,16.78a6.45,6.45,0,0,1-1.76,3.34L20,30.79Q14.83,25.46,9.67,20.12a6.48,6.48,0,0,1-1.76-3.34,6.09,6.09,0,0,1,.76-4.3A5.84,5.84,0,0,1,12,10a6.14,6.14,0,0,1,5.17,1.18,36.58,36.58,0,0,1,2.61,2.58.33.33,0,0,0,.48,0,36.85,36.85,0,0,1,2.65-2.58A6.15,6.15,0,0,1,28.05,10a5.77,5.77,0,0,1,3.29,2.5A6,6,0,0,1,32.1,16.78Z"></path>
  </symbol>

  <symbol id="message" xmlns="http://www.w3.org/2000/svg" viewBox="0 0 40 40">
    <defs></defs>
    <path d="M34,10.36a5,5,0,0,0-1-2.42,4,4,0,0,0-2.6-1.11c-10.49-.31-20.59,0-20.88,0h0A3.42,3.42,0,0,0,6.85,8a3.62,3.62,0,0,0-1,2.38q0,7.86.07,15.72A3.53,3.53,0,0,0,9.4,29.64h5.27v4.55a.82.82,0,0,0,.34.58.77.77,0,0,0,.67.06l6.81-5.19,7.92-.05a3.54,3.54,0,0,0,2.21-.74,3.66,3.66,0,0,0,1.31-2.68C34.08,20.2,34,10.36,34,10.36ZM21.75,21.24a.55.55,0,0,1-.55.54H13.47a.54.54,0,0,1-.54-.54v-.82a.54.54,0,0,1,.54-.55H21.2a.55.55,0,0,1,.55.55Zm5.31-5.18a.55.55,0,0,1-.54.55H13.37a.55.55,0,0,1-.54-.55v-.82a.55.55,0,0,1,.54-.55H26.52a.55.55,0,0,1,.54.55Z"></path>
  </symbol>
</svg>