<svg xmlns="http://www.w3.org/2000/svg" viewBox="0 0 40 40"><defs><style>.cls-1{fill:#ffffff;}</style></defs><g id="Layer_3" data-name="Layer 3"><path class="cls-1" d="M26.57,15.22c-.16-1.87-3.46-1.84-3.79-.33.46-2.11-3.62-2.46-3.46-1.23-.35-2.69.84-7.81-2.42-8a2.39,2.39,0,0,0-2.1,1.23A2,2,0,0,0,14.55,8v8.32c-1.85-2.35-5.44,1-4.33,3.51,1.63,3.64,4.11,7.5,6.11,7.72.82.08,9.37,0,11.18.08a.75.75,0,0,0,.72-.5A28.2,28.2,0,0,0,30.58,18C30.89,15.5,26.4,13.21,26.57,15.22Z"/><path class="cls-1" d="M27.46,28.62c-3.26-.11-10.29-.06-11.13,0-1.79,0-1.57,4.86-.24,4.85,5.38,0,7.62.07,11.51.07,1,0,1.73-3.07.68-4.48A1.07,1.07,0,0,0,27.46,28.62Zm-.81,3.06a1.12,1.12,0,0,1-2.15-.62A1.12,1.12,0,1,1,26.65,31.68Z"/></g></svg>